<svg width="97" height="87" fill="none" xmlns="http://www.w3.org/2000/svg"><g clip-path="url(#clip0_254_512)" fill-rule="evenodd" clip-rule="evenodd"><path d="M19.993 31.223l28.394 55.575L.662 31.223h19.331zm56.796 0L48.395 86.798 96.12 31.223H76.789z" fill="#EA6C00"/><path d="M19.992 31.223H76.78L48.386 86.798 19.992 31.223z" fill="#FDAD00"/><path d="M48.386.424l-26.9 2.843-1.494 27.957L48.386.424zm0 0l26.9 2.843 1.493 27.957L48.386.424z" fill="#FDD231"/><path d="M96.12 31.224L75.294 3.268l1.495 27.956h19.33zm-95.458 0L21.488 3.268l-1.495 27.956H.662z" fill="#FDAD00"/><path d="M48.386.424l-28.394 30.8H76.78L48.386.424z" fill="#FEEEB7"/></g><defs><clipPath id="clip0_254_512"><path fill="#fff" transform="translate(.487)" d="M0 0h96v86.899H0z"/></clipPath></defs></svg>