<svg width="59" height="89" fill="none" xmlns="http://www.w3.org/2000/svg"><g clip-path="url(#clip0_254_450)"><path d="M15.046 88.991c8.038 0 14.558-6.64 14.558-14.826V59.34H15.046c-8.04 0-14.56 6.64-14.56 14.825 0 8.186 6.521 14.826 14.56 14.826z" fill="#0ACF83"/><path d="M.487 44.496c0-8.186 6.52-14.826 14.559-14.826h14.558v29.67H15.046C7.006 59.32.486 52.681.486 44.495z" fill="#A259FF"/><path d="M.487 14.826C.487 6.64 7.007 0 15.046 0h14.558v29.67H15.046c-8.04 0-14.56-6.658-14.56-14.844z" fill="#F24E1E"/><path d="M29.622 0H44.18c8.038 0 14.558 6.64 14.558 14.826S52.22 29.65 44.181 29.65H29.62V0z" fill="#FF7262"/><path d="M58.74 44.496c0 8.186-6.52 14.825-14.56 14.825-8.038 0-14.558-6.64-14.558-14.825 0-8.186 6.52-14.826 14.559-14.826 8.038 0 14.558 6.64 14.558 14.826z" fill="#1ABCFE"/></g><defs><clipPath id="clip0_254_450"><path fill="#fff" transform="translate(.487)" d="M0 0h58.252v88.991H0z"/></clipPath></defs></svg>